#tb 0: 100/2397
#media_type 0: video
#codec_id 0: rawvideo
#dimensions 0: 320x240
#sar 0: 0/1
0,          0,          0,        1,   307200, 0xa01f27cc
0,          1,          1,        1,   307200, 0x5d83c4d0
0,          2,          2,        1,   307200, 0xb7d7919f
0,          3,          3,        1,   307200, 0x4d201450
